. 
  
http://www.torrenting.com/        :     Greatest Movie Tracker on The Net!!!
 
http://www.Torrenting.com          :     Once & For all ;)


               www . Torrenting . Com 

(((((((((((((= Enjoy No RAR releases =))))))))))))))))))))


...................................NFO:....................................

.	iTSDVD proudly presents

Edge.Perspectives.On.Drug.Free.Culture.2010.DVDRip.XViD-iTSDVD

		Details

Format                           : AVI
Format/Info                      : Audio Video Interleave
File size                        : 690 MiB
Duration                         : 1h 23mn
Overall bit rate                 : 1 154 Kbps
Writing application              : VirtualDubMod 1.5.10.2 (build 2540/release)
Writing library                  : VirtualDubMod build 2540/release

Video
ID                               : 0
Format                           : MPEG-4 Visual
Format profile                   : Advanced Simple@L5
Format settings, BVOP            : 2
Format settings, QPel            : No
Format settings, GMC             : No warppoints
Format settings, Matrix          : Default (H.263)
Muxing mode                      : Packed bitstream
Codec ID                         : XVID
Codec ID/Hint                    : XviD
Duration                         : 1h 23mn
Bit rate                         : 1 011 Kbps
Width                            : 640 pixels
Height                           : 352 pixels
Display aspect ratio             : 16:9
Frame rate                       : 29.970 fps
Color space                      : YUV
Chroma subsampling               : 4:2:0
Bit depth                        : 8 bits
Scan type                        : Progressive
Compression mode                 : Lossy
Bits/(Pixel*Frame)               : 0.150
Stream size                      : 604 MiB (88%)
Writing library                  : XviD 64

Audio
ID                               : 1
Format                           : MPEG Audio
Format version                   : Version 1
Format profile                   : Layer 3
Mode                             : Joint stereo
Mode extension                   : MS Stereo
Codec ID                         : 55
Codec ID/Hint                    : MP3
Duration                         : 1h 23mn
Bit rate mode                    : Variable
Bit rate                         : 128 Kbps
Channel(s)                       : 2 channels
Sampling rate                    : 48.0 KHz
Compression mode                 : Lossy
Stream size                      : 77.3 MiB (11%)
Alignment                        : Aligned on interleaves
Interleave, duration             : 24 ms (0.72 video frame)
Interleave, preload duration     : 142 ms
Writing library                  : LAME3.90.


EDGE - Perspectives on Drug Free Culture traces the straight edge subculture from its early roots in the beginning of
the 1980s to this day by drawing a very differentiated and diverse picture through in-depth interviews with 12 individuals. Artists, Musicians, activists and people that shaped the idea from the beginning, such as Ian MacKaye (Minor Threat/Fugazi), Ray Cappo (Youth of Today/Shelter) and Karl Buechner (Earth Crisis), give witness to their perception of the history of Straight Edge and comment on the praise and criticism.

URL: 
http://www.theedgeprojectmovie.com/

iMDB: 
http://www.imdb.com/title/tt1458435/